<svg xmlns="http://www.w3.org/2000/svg" viewBox="0 0 1200 900" role="img" aria-labelledby="title desc">
  <title id="title">Hybrid service technician near open hood</title>
  <desc id="desc">Illustration of a mechanic with a wrench working on a hybrid vehicle in a service bay.</desc>
  <defs>
    <linearGradient id="bg4" x1="0" x2="1" y1="0" y2="1">
      <stop offset="0%" stop-color="#f8fafc"/>
      <stop offset="100%" stop-color="#e2e8f0"/>
    </linearGradient>
    <linearGradient id="coat" x1="0" x2="1" y1="0" y2="1">
      <stop offset="0%" stop-color="#0f172a"/>
      <stop offset="100%" stop-color="#1e293b"/>
    </linearGradient>
    <linearGradient id="car4" x1="0" x2="1" y1="0" y2="0">
      <stop offset="0%" stop-color="#22c55e"/>
      <stop offset="100%" stop-color="#15803d"/>
    </linearGradient>
  </defs>
  <rect width="1200" height="900" fill="url(#bg4)"/>
  <rect x="100" y="120" width="1000" height="560" rx="28" fill="#ffffff" stroke="#cbd5e1" stroke-width="10"/>
  <rect x="130" y="150" width="940" height="500" rx="20" fill="#f1f5f9"/>
  <ellipse cx="600" cy="765" rx="480" ry="44" fill="#94a3b8" opacity="0.25"/>
  <rect x="200" y="470" width="640" height="170" rx="54" fill="url(#car4)"/>
  <path d="M300 470h330l120-110h130v110H300z" fill="#16a34a"/>
  <rect x="370" y="390" width="290" height="80" rx="20" fill="#dcfce7"/>
  <circle cx="315" cy="640" r="50" fill="#0f172a"/>
  <circle cx="740" cy="640" r="50" fill="#0f172a"/>
  <circle cx="315" cy="640" r="22" fill="#94a3b8"/>
  <circle cx="740" cy="640" r="22" fill="#94a3b8"/>
  <rect x="890" y="300" width="70" height="230" rx="24" fill="url(#coat)"/>
  <rect x="935" y="330" width="52" height="110" rx="18" fill="url(#coat)"/>
  <circle cx="927" cy="255" r="38" fill="#f8d4be"/>
  <path d="M900 245c8-34 48-44 70-20v20h-70z" fill="#334155"/>
  <rect x="860" y="525" width="128" height="24" rx="12" fill="#334155"/>
  <rect x="1005" y="505" width="62" height="20" rx="10" fill="#334155"/>
  <circle cx="1068" cy="515" r="12" fill="#f8fafc"/>
  <rect x="180" y="200" width="170" height="170" rx="18" fill="#dcfce7"/>
  <path d="M230 286h75" stroke="#22c55e" stroke-width="14" stroke-linecap="round"/>
  <path d="M268 248v76" stroke="#22c55e" stroke-width="14" stroke-linecap="round"/>
  <rect x="150" y="690" width="900" height="20" rx="10" fill="#cbd5e1"/>
</svg>
