<svg xmlns="http://www.w3.org/2000/svg" viewBox="0 0 1200 800" role="img" aria-labelledby="title desc">
  <title id="title">Hybrid battery diagnostic service scene</title>
  <desc id="desc">Illustrative scene of a technician examining hybrid battery diagnostics in a clean service bay.</desc>
  <defs>
    <linearGradient id="bg" x1="0" x2="1" y1="0" y2="1">
      <stop offset="0" stop-color="#0f172a" />
      <stop offset="1" stop-color="#1e4d44" />
    </linearGradient>
    <linearGradient id="panel" x1="0" x2="1" y1="0" y2="0">
      <stop offset="0" stop-color="#4a9422" />
      <stop offset="1" stop-color="#66bb3a" />
    </linearGradient>
  </defs>
  <rect width="1200" height="800" fill="url(#bg)" />
  <rect x="120" y="120" width="960" height="560" rx="28" fill="#ffffff" opacity="0.1" />
  <rect x="170" y="180" width="860" height="130" rx="16" fill="#ffffff" opacity="0.85" />
  <rect x="200" y="210" width="520" height="26" rx="13" fill="#0f172a" opacity="0.7" />
  <rect x="200" y="252" width="420" height="20" rx="10" fill="#334155" opacity="0.55" />
  <rect x="170" y="340" width="620" height="280" rx="20" fill="#0b1220" />
  <rect x="820" y="340" width="210" height="280" rx="20" fill="#0f172a" />
  <rect x="210" y="380" width="540" height="22" rx="11" fill="#1e293b" />
  <rect x="210" y="420" width="300" height="16" rx="8" fill="#334155" />
  <rect x="210" y="455" width="420" height="16" rx="8" fill="#334155" />
  <rect x="210" y="490" width="360" height="16" rx="8" fill="#334155" />
  <rect x="850" y="380" width="150" height="32" rx="16" fill="url(#panel)" />
  <rect x="850" y="432" width="150" height="32" rx="16" fill="#334155" />
  <rect x="850" y="484" width="150" height="32" rx="16" fill="#334155" />
  <circle cx="930" cy="575" r="28" fill="#4a9422" />
  <path d="M918 575l9 9 15-18" fill="none" stroke="#fff" stroke-width="6" stroke-linecap="round" stroke-linejoin="round" />
</svg>
